<?xml version="1.0" encoding="utf-8"?>
<!-- Generator: Adobe Illustrator 18.1.1, SVG Export Plug-In . SVG Version: 6.00 Build 0)  -->
<svg version="1.1" id="Layer_1" xmlns="http://www.w3.org/2000/svg" xmlns:xlink="http://www.w3.org/1999/xlink" x="0px" y="0px"
	 viewBox="0 0 603 142.7" style="enable-background:new 0 0 603 142.7;" xml:space="preserve">
<path style="fill:#FB0F3B;" d="M330.9,26.7c36.6-10,73.6-18.2,110.9-25.3c0,0,0.1,0,0.1,0c2.4-0.3,4.6-1.1,6.9-0.1
	c0.8,0.3,1.3,1.2,1.2,2v0c-0.1,0.9-0.7,1.7-1.7,1.9C430,8.7,412,13.8,393.9,18c-17.7,5.2-36.1,9.4-52.2,18.7
	c-5.8,4.2-12,8.9-14.7,15.8c-1.7,3.7-0.8,8.1,1.2,11.5c8.6,14.6,26.1,24,29.6,40.9c0.9,4.2,1.8,11.6-2.3,15.6
	c-4.1,4.3-10.1,6.1-15.7,7.6c-13.4,3.2-27.1,4.1-40.8,5.6c-29.8,3.2-59.7,5.2-89.7,7.1c-14.6,0.9-28.9,0.4-43.3,0.6
	c-0.7,0-1.1-0.7-0.8-1.3c0-0.1,0.1-0.1,0.1-0.2c0.2-0.5,0.7-0.8,1.2-0.8c25.7-1.9,51.4-3.9,77.1-6.9c17.1-2.1,34.5-4.4,50.8-10.3
	c9.9-4.1,20.6-9.7,24.8-20.2c3.5-7.9-1.6-16.3-6.1-22.6c-7.1-7.9-17.2-13.6-21.4-23.8c-2-5.7-0.3-12.2,4.7-15.8
	C306.7,32.4,319.2,30,330.9,26.7L330.9,26.7z"/>
<path style="fill:#353149;" d="M14.2,26c7.5-9.4,19.1-14.6,30.9-15.9c14-1.6,29.5-0.3,41,8.5c9.4,6.9,13.9,18.5,14.9,29.8
	c-5.6-0.1-11.1,0.3-16.7-0.2c-7.8-1.3-8.2-11.1-14.5-14.7C57.2,26.4,38.3,29,30.4,42c-6,10.1-6.1,22.4-5.1,33.8
	c1,10.9,6.7,22.6,17.6,26.7c9.2,3.1,20.5,2.7,28.4-3.6c4.6-3.7,6.4-9.6,8.5-14.9C86.9,84.1,94,84,101.2,84
	c-1,11.7-5.9,23.5-15.4,30.8c-10.7,8.1-24.7,10.2-37.8,9.4c-11.4-0.6-23.2-4.5-31.1-13.1C5.5,99.7,2.1,82.7,3,67.1
	C2.2,52.7,4.9,37.4,14.2,26L14.2,26z"/>
<path style="fill:#FB0F3B;" d="M575.8,43.4c0.2-10.8-0.1-21.6,0.2-32.5c4.6,0.2,9.2-0.1,13.8,0.2c5.5,0.2,10,5.4,9.9,10.8
	c0.1,19.9,0,39.8,0.1,59.7c0,11.6-0.6,25.2-10.2,33.2c-9.4,7.1-21.5,10.3-33.2,9.6c-10.8,0.2-22.9-2.6-29.6-11.8
	c-8.6-11.8-9.1-27.2-8.1-41.3c0.8-11.6,5.2-23.4,14.4-30.9c8.4-7,20.3-7.7,30.6-5.1C568.5,36.6,572.1,40.3,575.8,43.4L575.8,43.4z"
	/>
<path style="fill:#353149;" d="M111.1,13c6.5,0.4,14.9-2.4,19.5,3.7c3.3,3.7,2.2,9,2,13.5c-7.2-0.2-14.3-0.1-21.5-0.1
	C111.1,24.4,111.1,18.7,111.1,13L111.1,13z"/>
<path style="fill:#FB0F3B;" d="M370,42.2c9.9-8.5,24-9,36.3-7.1c10.4,1.5,19.9,8.1,24.6,17.5c5.3,10.4,5.5,22.5,5.5,33.9
	c-18.3,0.8-36.7-0.1-55.1,0.5c1,5.8,3.3,12.3,9.1,15c5.9,3.5,13.9,1.4,18.1-3.7c1.4-1.4,2.7-3.2,4.9-3.4c7.1-0.2,14.3-0.2,21.4-0.3
	c-0.6,12.9-10.6,24-22.6,27.9c-7,2.6-14.6,2.1-21.9,2c-12.1-0.2-23.7-7.8-28.8-18.8c-5.6-10.5-5.3-22.8-4.8-34.3
	C357.4,60.4,361.4,49.2,370,42.2L370,42.2z"/>
<path style="fill:#FB0F3B;" d="M450.6,42.7c12.3-8.7,28.7-10.7,43-6.3c7.4,2.4,14.8,6.5,18.5,13.6c2.7,5.7,3.5,12.1,3.9,18.3
	c0.2,18.2-0.1,36.4,0.3,54.7c-5.5,0.4-11.1,0.6-16.5-0.2c-4.4-0.8-8.1-4.7-8-9.3c-0.2-15.5,0.1-31-0.1-46.4
	c-0.2-9.3-12-15.8-19.8-10.6c-4.7,1.9-6.9,7.1-6.9,11.9c-0.3,18.3,0.4,36.6-0.3,54.9c-8.1-0.2-16.2-0.1-24.3-0.1
	c0.2-18.8,0-37.5,0.1-56.3C440.9,58.2,443,48.2,450.6,42.7L450.6,42.7z"/>
<path style="fill:#353149;" d="M145.8,45.4c15.6-12.7,39.9-13.1,55.6-0.5c7.2,6.7,8.7,17.2,8.9,26.5c-0.1,16.9,0.3,33.8-0.2,50.7
	c-4.5-0.2-9,0.1-13.4-0.4c-4.5-0.7-8-5.1-8.1-9.6c-0.2-15.5,0.2-31-0.1-46.5c-0.6-10.9-15.1-15.6-23.4-9.8c-4.5,2.5-6.1,7.9-6,12.7
	c-0.2,17.9,0.7,35.8-0.1,53.6c-7.3-0.2-14.5-0.1-21.7-0.1c0.1-17.3,0-34.7,0-52C137.4,61.2,139.3,51.7,145.8,45.4L145.8,45.4z"/>
<path style="fill:#353149;" d="M221.9,51.4c5.1-8.6,14.4-14.3,24.3-15.5c13-1.8,28.1,1,36.7,11.7c8.5,10.5,9.9,24.7,9.4,37.7
	c-18.3,0.1-36.6-0.1-55,0.1c0.6,5,1.2,10.5,4.9,14.3c4.8,5.6,13.3,6.4,19.8,3.7c4.7-1.5,6.5-7.6,11.8-7.7c5.7-0.5,11.5-0.1,17.2-0.2
	c-2.3,11.8-11.2,21.9-22.7,25.5c-11.2,3.6-24.1,3.4-34.6-2.3c-10.7-6.1-16.7-18-18-30C214.5,76.2,214.9,62.5,221.9,51.4L221.9,51.4z
	"/>
<path style="fill:#353149;" d="M111,37.9c6.5,0.2,15-2.5,19.5,3.6c3.2,3.4,2.2,8.4,2.3,12.6c-0.3,22.7,0.7,45.4-0.1,68.1
	c-7.3-0.2-14.6-0.1-21.9-0.1C110.6,93.9,111.4,65.9,111,37.9L111,37.9z"/>
<path style="fill:#FFFFFF;" d="M247.2,55c5.9-2,13.4-1.6,18,3.2c3.2,3.4,4.1,8.2,4.4,12.7c-10.7,0-21.4,0-32.1,0
	C237.5,64.4,240.8,57.5,247.2,55L247.2,55z"/>
<path style="fill:#FFFFFF;" d="M381.5,69.8c0.6-8.1,7.7-15.4,16.1-14.3c7.5,0.1,12.7,7.4,12.8,14.5
	C400.8,69.2,391.2,70.5,381.5,69.8L381.5,69.8z"/>
<path style="fill:#FFFFFF;" d="M555.5,56.3c5.8-1.7,12.1,1.5,15.6,6.1c3.5,5.1,4.6,11.5,4.7,17.6c-0.7,6.6-1.5,14-6.3,19.1
	c-3.8,3.5-9.5,5.8-14.6,3.7c-9.4-2.9-12.5-13.9-12.7-22.7C541.9,70.8,545.6,59.2,555.5,56.3L555.5,56.3z"/>
</svg>
